<mxfile host="Electron" agent="Mozilla/5.0 (Windows NT 10.0; Win64; x64) AppleWebKit/537.36 (KHTML, like Gecko) draw.io/26.0.7 Chrome/128.0.6613.186 Electron/32.2.5 Safari/537.36" version="26.0.7">
  <diagram id="C5RBs43oDa-KdzZeNtuy" name="Page-1">
    <mxGraphModel dx="1434" dy="836" grid="1" gridSize="10" guides="1" tooltips="1" connect="1" arrows="1" fold="1" page="1" pageScale="1" pageWidth="827" pageHeight="1169" math="0" shadow="0">
      <root>
        <mxCell id="WIyWlLk6GJQsqaUBKTNV-0" />
        <mxCell id="WIyWlLk6GJQsqaUBKTNV-1" parent="WIyWlLk6GJQsqaUBKTNV-0" />
        <mxCell id="GgA6xW69Z9e0CshWcsCM-2" value="" style="edgeStyle=orthogonalEdgeStyle;rounded=0;orthogonalLoop=1;jettySize=auto;html=1;" edge="1" parent="WIyWlLk6GJQsqaUBKTNV-1" source="GgA6xW69Z9e0CshWcsCM-0" target="GgA6xW69Z9e0CshWcsCM-1">
          <mxGeometry relative="1" as="geometry" />
        </mxCell>
        <mxCell id="GgA6xW69Z9e0CshWcsCM-0" value="Start" style="strokeWidth=2;html=1;shape=mxgraph.flowchart.terminator;whiteSpace=wrap;" vertex="1" parent="WIyWlLk6GJQsqaUBKTNV-1">
          <mxGeometry x="140" y="10" width="100" height="60" as="geometry" />
        </mxCell>
        <mxCell id="GgA6xW69Z9e0CshWcsCM-4" value="" style="edgeStyle=orthogonalEdgeStyle;rounded=0;orthogonalLoop=1;jettySize=auto;html=1;" edge="1" parent="WIyWlLk6GJQsqaUBKTNV-1" source="GgA6xW69Z9e0CshWcsCM-1">
          <mxGeometry relative="1" as="geometry">
            <mxPoint x="190" y="210" as="targetPoint" />
          </mxGeometry>
        </mxCell>
        <mxCell id="GgA6xW69Z9e0CshWcsCM-1" value="Declarations&lt;div&gt;num secretNumber&amp;nbsp;&lt;/div&gt;&lt;div&gt;num userNumber&lt;/div&gt;" style="whiteSpace=wrap;html=1;strokeWidth=2;" vertex="1" parent="WIyWlLk6GJQsqaUBKTNV-1">
          <mxGeometry x="100" y="100" width="180" height="80" as="geometry" />
        </mxCell>
        <mxCell id="GgA6xW69Z9e0CshWcsCM-6" value="" style="edgeStyle=orthogonalEdgeStyle;rounded=0;orthogonalLoop=1;jettySize=auto;html=1;entryX=0.542;entryY=0.014;entryDx=0;entryDy=0;entryPerimeter=0;" edge="1" parent="WIyWlLk6GJQsqaUBKTNV-1" target="GgA6xW69Z9e0CshWcsCM-7">
          <mxGeometry relative="1" as="geometry">
            <mxPoint x="190" y="280" as="sourcePoint" />
            <mxPoint x="190" y="310" as="targetPoint" />
          </mxGeometry>
        </mxCell>
        <mxCell id="GgA6xW69Z9e0CshWcsCM-8" value="" style="edgeStyle=orthogonalEdgeStyle;rounded=0;orthogonalLoop=1;jettySize=auto;html=1;" edge="1" parent="WIyWlLk6GJQsqaUBKTNV-1" target="GgA6xW69Z9e0CshWcsCM-7">
          <mxGeometry relative="1" as="geometry">
            <mxPoint x="190" y="370" as="sourcePoint" />
          </mxGeometry>
        </mxCell>
        <mxCell id="GgA6xW69Z9e0CshWcsCM-10" value="" style="edgeStyle=orthogonalEdgeStyle;rounded=0;orthogonalLoop=1;jettySize=auto;html=1;" edge="1" parent="WIyWlLk6GJQsqaUBKTNV-1" source="GgA6xW69Z9e0CshWcsCM-7" target="GgA6xW69Z9e0CshWcsCM-9">
          <mxGeometry relative="1" as="geometry" />
        </mxCell>
        <mxCell id="GgA6xW69Z9e0CshWcsCM-7" value="Input userNumber" style="shape=parallelogram;perimeter=parallelogramPerimeter;whiteSpace=wrap;html=1;fixedSize=1;strokeWidth=2;" vertex="1" parent="WIyWlLk6GJQsqaUBKTNV-1">
          <mxGeometry x="85" y="330" width="190" height="70" as="geometry" />
        </mxCell>
        <mxCell id="GgA6xW69Z9e0CshWcsCM-37" value="" style="edgeStyle=orthogonalEdgeStyle;rounded=0;orthogonalLoop=1;jettySize=auto;html=1;" edge="1" parent="WIyWlLk6GJQsqaUBKTNV-1" source="GgA6xW69Z9e0CshWcsCM-9" target="GgA6xW69Z9e0CshWcsCM-35">
          <mxGeometry relative="1" as="geometry" />
        </mxCell>
        <mxCell id="GgA6xW69Z9e0CshWcsCM-41" value="Yes" style="edgeLabel;html=1;align=center;verticalAlign=middle;resizable=0;points=[];" vertex="1" connectable="0" parent="GgA6xW69Z9e0CshWcsCM-37">
          <mxGeometry x="-0.4" y="3" relative="1" as="geometry">
            <mxPoint as="offset" />
          </mxGeometry>
        </mxCell>
        <mxCell id="GgA6xW69Z9e0CshWcsCM-42" style="edgeStyle=orthogonalEdgeStyle;rounded=0;orthogonalLoop=1;jettySize=auto;html=1;exitX=1;exitY=0.5;exitDx=0;exitDy=0;entryX=0;entryY=0.5;entryDx=0;entryDy=0;" edge="1" parent="WIyWlLk6GJQsqaUBKTNV-1" source="GgA6xW69Z9e0CshWcsCM-9" target="GgA6xW69Z9e0CshWcsCM-11">
          <mxGeometry relative="1" as="geometry" />
        </mxCell>
        <mxCell id="GgA6xW69Z9e0CshWcsCM-43" value="No" style="edgeLabel;html=1;align=center;verticalAlign=middle;resizable=0;points=[];" vertex="1" connectable="0" parent="GgA6xW69Z9e0CshWcsCM-42">
          <mxGeometry x="-0.1" y="-1" relative="1" as="geometry">
            <mxPoint as="offset" />
          </mxGeometry>
        </mxCell>
        <mxCell id="GgA6xW69Z9e0CshWcsCM-9" value="secretNumber = userNumber" style="rhombus;whiteSpace=wrap;html=1;strokeWidth=2;" vertex="1" parent="WIyWlLk6GJQsqaUBKTNV-1">
          <mxGeometry x="115" y="430" width="130" height="110" as="geometry" />
        </mxCell>
        <mxCell id="GgA6xW69Z9e0CshWcsCM-14" value="" style="edgeStyle=orthogonalEdgeStyle;rounded=0;orthogonalLoop=1;jettySize=auto;html=1;" edge="1" parent="WIyWlLk6GJQsqaUBKTNV-1" source="GgA6xW69Z9e0CshWcsCM-11">
          <mxGeometry relative="1" as="geometry">
            <mxPoint x="530" y="480" as="targetPoint" />
            <Array as="points">
              <mxPoint x="480" y="480" />
              <mxPoint x="480" y="480" />
            </Array>
          </mxGeometry>
        </mxCell>
        <mxCell id="GgA6xW69Z9e0CshWcsCM-44" value="No" style="edgeLabel;html=1;align=center;verticalAlign=middle;resizable=0;points=[];" vertex="1" connectable="0" parent="GgA6xW69Z9e0CshWcsCM-14">
          <mxGeometry x="-0.0275" y="1" relative="1" as="geometry">
            <mxPoint as="offset" />
          </mxGeometry>
        </mxCell>
        <mxCell id="GgA6xW69Z9e0CshWcsCM-45" style="edgeStyle=orthogonalEdgeStyle;rounded=0;orthogonalLoop=1;jettySize=auto;html=1;exitX=0.5;exitY=1;exitDx=0;exitDy=0;" edge="1" parent="WIyWlLk6GJQsqaUBKTNV-1" source="GgA6xW69Z9e0CshWcsCM-11" target="GgA6xW69Z9e0CshWcsCM-19">
          <mxGeometry relative="1" as="geometry" />
        </mxCell>
        <mxCell id="GgA6xW69Z9e0CshWcsCM-46" value="Yes" style="edgeLabel;html=1;align=center;verticalAlign=middle;resizable=0;points=[];" vertex="1" connectable="0" parent="GgA6xW69Z9e0CshWcsCM-45">
          <mxGeometry x="-0.4" y="4" relative="1" as="geometry">
            <mxPoint as="offset" />
          </mxGeometry>
        </mxCell>
        <mxCell id="GgA6xW69Z9e0CshWcsCM-11" value="secretNumber &amp;gt; userNumber" style="rhombus;whiteSpace=wrap;html=1;strokeWidth=2;" vertex="1" parent="WIyWlLk6GJQsqaUBKTNV-1">
          <mxGeometry x="330" y="430" width="130" height="110" as="geometry" />
        </mxCell>
        <mxCell id="GgA6xW69Z9e0CshWcsCM-49" style="edgeStyle=orthogonalEdgeStyle;rounded=0;orthogonalLoop=1;jettySize=auto;html=1;exitX=0.5;exitY=1;exitDx=0;exitDy=0;" edge="1" parent="WIyWlLk6GJQsqaUBKTNV-1" source="GgA6xW69Z9e0CshWcsCM-19">
          <mxGeometry relative="1" as="geometry">
            <mxPoint x="190" y="300" as="targetPoint" />
            <mxPoint x="395" y="650" as="sourcePoint" />
            <Array as="points">
              <mxPoint x="395" y="685" />
              <mxPoint x="396" y="685" />
              <mxPoint x="396" y="710" />
              <mxPoint x="750" y="710" />
              <mxPoint x="750" y="300" />
            </Array>
          </mxGeometry>
        </mxCell>
        <mxCell id="GgA6xW69Z9e0CshWcsCM-19" value="Output: &quot;Guess lower.&quot;" style="shape=parallelogram;perimeter=parallelogramPerimeter;whiteSpace=wrap;html=1;fixedSize=1;strokeWidth=2;" vertex="1" parent="WIyWlLk6GJQsqaUBKTNV-1">
          <mxGeometry x="335" y="580" width="120" height="60" as="geometry" />
        </mxCell>
        <mxCell id="GgA6xW69Z9e0CshWcsCM-21" value="end" style="strokeWidth=2;html=1;shape=mxgraph.flowchart.terminator;whiteSpace=wrap;rotation=0;" vertex="1" parent="WIyWlLk6GJQsqaUBKTNV-1">
          <mxGeometry x="130" y="670" width="100" height="60" as="geometry" />
        </mxCell>
        <mxCell id="GgA6xW69Z9e0CshWcsCM-38" value="" style="edgeStyle=orthogonalEdgeStyle;rounded=0;orthogonalLoop=1;jettySize=auto;html=1;" edge="1" parent="WIyWlLk6GJQsqaUBKTNV-1" source="GgA6xW69Z9e0CshWcsCM-35" target="GgA6xW69Z9e0CshWcsCM-21">
          <mxGeometry relative="1" as="geometry" />
        </mxCell>
        <mxCell id="GgA6xW69Z9e0CshWcsCM-35" value="Output &quot;You guess correctly!&quot;" style="shape=parallelogram;perimeter=parallelogramPerimeter;whiteSpace=wrap;html=1;fixedSize=1;" vertex="1" parent="WIyWlLk6GJQsqaUBKTNV-1">
          <mxGeometry x="105" y="585" width="150" height="50" as="geometry" />
        </mxCell>
        <mxCell id="GgA6xW69Z9e0CshWcsCM-48" style="edgeStyle=orthogonalEdgeStyle;rounded=0;orthogonalLoop=1;jettySize=auto;html=1;exitX=0.5;exitY=1;exitDx=0;exitDy=0;" edge="1" parent="WIyWlLk6GJQsqaUBKTNV-1" source="GgA6xW69Z9e0CshWcsCM-39">
          <mxGeometry relative="1" as="geometry">
            <mxPoint x="580" y="710" as="targetPoint" />
          </mxGeometry>
        </mxCell>
        <mxCell id="GgA6xW69Z9e0CshWcsCM-39" value="Output: &quot;Guess higher.&quot;" style="shape=parallelogram;perimeter=parallelogramPerimeter;whiteSpace=wrap;html=1;fixedSize=1;strokeWidth=2;" vertex="1" parent="WIyWlLk6GJQsqaUBKTNV-1">
          <mxGeometry x="520" y="450" width="120" height="60" as="geometry" />
        </mxCell>
        <mxCell id="GgA6xW69Z9e0CshWcsCM-51" value="Generate secretNumber between 1-100" style="whiteSpace=wrap;html=1;strokeWidth=2;" vertex="1" parent="WIyWlLk6GJQsqaUBKTNV-1">
          <mxGeometry x="95" y="210" width="180" height="80" as="geometry" />
        </mxCell>
      </root>
    </mxGraphModel>
  </diagram>
</mxfile>
